# xmcd CD database file generated by Grip 2.95
# 
# Track frame offsets:
#       150
#       31487
#       73980
#       101425
#       138417
#       194057
#       221385
#       263492
#       284772
#       304985
# 
# Disc length: 4228 seconds
# 
# Revision: 3
# Processed by: cddbd v1.4PL0 Copyright (c) Steve Scherf et al.
# Submitted via: Grip 2.95
# 
DISCID=a010820a
DTITLE=Magic Slim and The Teardrops - Vol. 5 Zoo Bar Collection
DYEAR=1900
DGENRE=
TTITLE0=My Buddy Buddy Friends
TTITLE1=Cold Women With Warm Hearts
TTITLE2=Highway Is My Home
TTITLE3=Mustang Sally
TTITLE4=Not The Same Person
TTITLE5=Let Me Love You Baby
TTITLE6='Possum In My Tree
TTITLE7=Reelin' And Rockin'
TTITLE8=She Belongs To Me
TTITLE9=Hide Away
EXTD=
EXTT0=
EXTT1=
EXTT2=
EXTT3=
EXTT4=
EXTT5=
EXTT6=
EXTT7=
EXTT8=
EXTT9=
PLAYORDER=
